<svg width="119" height="15" viewBox="0 0 119 15" fill="none" xmlns="http://www.w3.org/2000/svg">
<path d="M0.386 13V0.436H8.936V2.866H3.122V5.44H8.108V7.852H3.122V10.57H8.936V13H0.386ZM15.0096 6.556L13.7136 3.946H13.6596V13H11.4096V0.436H14.0196L17.7996 6.88L19.0956 9.49H19.1496V0.436H21.3996V13H18.7896L15.0096 6.556ZM24.3471 0.436H28.9191C29.7351 0.436 30.4731 0.567999 31.1331 0.831999C31.8051 1.096 32.3751 1.492 32.8431 2.02C33.3231 2.536 33.6891 3.19 33.9411 3.982C34.2051 4.762 34.3371 5.674 34.3371 6.718C34.3371 7.762 34.2051 8.68 33.9411 9.472C33.6891 10.252 33.3231 10.906 32.8431 11.434C32.3751 11.95 31.8051 12.34 31.1331 12.604C30.4731 12.868 29.7351 13 28.9191 13H24.3471V0.436ZM28.9191 10.894C29.8071 10.894 30.5091 10.636 31.0251 10.12C31.5531 9.592 31.8171 8.788 31.8171 7.708V5.728C31.8171 4.648 31.5531 3.85 31.0251 3.334C30.5091 2.806 29.8071 2.542 28.9191 2.542H26.7231V10.894H28.9191ZM36.7573 13V0.436H45.0373V2.542H39.1333V5.584H44.3533V7.69H39.1333V10.894H45.0373V13H36.7573ZM49.9262 13H47.5502V0.436H53.2202C53.7962 0.436 54.3122 0.526 54.7682 0.705999C55.2242 0.885999 55.6082 1.15 55.9202 1.498C56.2442 1.834 56.4902 2.242 56.6582 2.722C56.8382 3.202 56.9282 3.736 56.9282 4.324C56.9282 5.188 56.7302 5.932 56.3342 6.556C55.9502 7.18 55.3682 7.624 54.5882 7.888L57.1622 13H54.5162L52.1762 8.158H49.9262V13ZM52.9862 6.16C53.4422 6.16 53.8022 6.04 54.0662 5.8C54.3302 5.548 54.4622 5.194 54.4622 4.738V3.91C54.4622 3.454 54.3302 3.106 54.0662 2.866C53.8022 2.626 53.4422 2.506 52.9862 2.506H49.9262V6.16H52.9862ZM63.4813 13.216C62.3773 13.216 61.4413 13.03 60.6733 12.658C59.9053 12.274 59.2513 11.782 58.7113 11.182L60.5113 9.364C61.3633 10.324 62.4133 10.804 63.6613 10.804C64.3333 10.804 64.8313 10.666 65.1553 10.39C65.4793 10.114 65.6413 9.748 65.6413 9.292C65.6413 8.944 65.5453 8.656 65.3533 8.428C65.1613 8.188 64.7713 8.026 64.1833 7.942L62.9413 7.78C61.6093 7.612 60.6313 7.21 60.0073 6.574C59.3953 5.938 59.0893 5.092 59.0893 4.036C59.0893 3.472 59.1973 2.956 59.4133 2.488C59.6293 2.02 59.9353 1.618 60.3313 1.282C60.7393 0.946 61.2313 0.688 61.8073 0.508C62.3953 0.316 63.0613 0.219999 63.8053 0.219999C64.7533 0.219999 65.5873 0.369999 66.3073 0.669999C67.0273 0.969999 67.6453 1.408 68.1613 1.984L66.3433 3.82C66.0433 3.472 65.6773 3.19 65.2453 2.974C64.8253 2.746 64.2913 2.632 63.6433 2.632C63.0313 2.632 62.5753 2.74 62.2753 2.956C61.9753 3.172 61.8253 3.472 61.8253 3.856C61.8253 4.288 61.9393 4.6 62.1673 4.792C62.4073 4.984 62.7913 5.122 63.3193 5.206L64.5613 5.404C65.8573 5.608 66.8173 6.01 67.4413 6.61C68.0653 7.198 68.3773 8.038 68.3773 9.13C68.3773 9.73 68.2693 10.282 68.0533 10.786C67.8373 11.29 67.5193 11.722 67.0993 12.082C66.6913 12.442 66.1813 12.724 65.5693 12.928C64.9573 13.12 64.2613 13.216 63.4813 13.216ZM75.6678 2.542V13H73.2918V2.542H69.7278V0.436H79.2318V2.542H75.6678ZM96.9272 0.436H101.499C102.315 0.436 103.053 0.567999 103.713 0.831999C104.385 1.096 104.955 1.492 105.423 2.02C105.903 2.536 106.269 3.19 106.521 3.982C106.785 4.762 106.917 5.674 106.917 6.718C106.917 7.762 106.785 8.68 106.521 9.472C106.269 10.252 105.903 10.906 105.423 11.434C104.955 11.95 104.385 12.34 103.713 12.604C103.053 12.868 102.315 13 101.499 13H96.9272V0.436ZM101.499 10.894C102.387 10.894 103.089 10.636 103.605 10.12C104.133 9.592 104.397 8.788 104.397 7.708V5.728C104.397 4.648 104.133 3.85 103.605 3.334C103.089 2.806 102.387 2.542 101.499 2.542H99.3032V10.894H101.499ZM111.605 13V8.068L107.303 0.436H109.967L112.865 5.746H112.901L115.727 0.436H118.319L113.999 8.05V13H111.605Z" fill="white"/>
<path d="M94.7949 2.5C94.9772 2.5 95.1322 2.5638 95.2598 2.69141C95.3874 2.81901 95.4512 2.97396 95.4512 3.15625V4.6875C95.4512 5.70833 94.8861 6.62891 93.7559 7.44922C92.8809 8.06901 91.8783 8.44271 90.748 8.57031C90.1829 9.51823 89.5632 10.1927 88.8887 10.5938V12.5625H90.2012C90.6934 12.5625 91.1035 12.6992 91.4316 12.9727C91.778 13.2461 91.9512 13.6198 91.9512 14.0938V14.4219C91.9512 14.6406 91.8418 14.75 91.623 14.75H83.5293C83.3105 14.75 83.2012 14.6406 83.2012 14.4219V14.0938C83.2012 13.6198 83.3652 13.2461 83.6934 12.9727C84.0397 12.6992 84.459 12.5625 84.9512 12.5625H86.2637V10.5938C86.1908 10.5573 86.0905 10.4935 85.9629 10.4023C85.8353 10.3112 85.6074 10.0924 85.2793 9.74609C84.9512 9.39974 84.6595 9.00781 84.4043 8.57031C83.2741 8.44271 82.2715 8.06901 81.3965 7.44922C80.2663 6.62891 79.7012 5.70833 79.7012 4.6875V3.15625C79.7012 2.97396 79.765 2.81901 79.8926 2.69141C80.0202 2.5638 80.1751 2.5 80.3574 2.5H83.2012V1.40625C83.2012 1.22396 83.265 1.06901 83.3926 0.941406C83.5202 0.813802 83.6751 0.75 83.8574 0.75H91.2949C91.4772 0.75 91.6322 0.813802 91.7598 0.941406C91.8874 1.06901 91.9512 1.22396 91.9512 1.40625V2.5H94.7949ZM82.4082 6.02734C82.7546 6.26432 83.1374 6.45573 83.5566 6.60156C83.3561 5.85417 83.2376 5.07031 83.2012 4.25H81.4512V4.6875C81.4512 5.10677 81.7702 5.55339 82.4082 6.02734ZM93.7012 4.6875V4.25H91.9512C91.9147 5.07031 91.7962 5.85417 91.5957 6.60156C92.015 6.45573 92.3978 6.26432 92.7441 6.02734C93.3822 5.55339 93.7012 5.10677 93.7012 4.6875Z" fill="#DD2052"/>
</svg>
