<svg width="133" height="24" viewBox="0 0 133 24" fill="none" xmlns="http://www.w3.org/2000/svg">
<path d="M1.386 18V5.436H9.936V7.866H4.122V10.44H9.108V12.852H4.122V15.57H9.936V18H1.386ZM16.0096 11.556L14.7136 8.946H14.6596V18H12.4096V5.436H15.0196L18.7996 11.88L20.0956 14.49H20.1496V5.436H22.3996V18H19.7896L16.0096 11.556ZM25.3471 5.436H29.9191C30.7351 5.436 31.4731 5.568 32.1331 5.832C32.8051 6.096 33.3751 6.492 33.8431 7.02C34.3231 7.536 34.6891 8.19 34.9411 8.982C35.2051 9.762 35.3371 10.674 35.3371 11.718C35.3371 12.762 35.2051 13.68 34.9411 14.472C34.6891 15.252 34.3231 15.906 33.8431 16.434C33.3751 16.95 32.8051 17.34 32.1331 17.604C31.4731 17.868 30.7351 18 29.9191 18H25.3471V5.436ZM29.9191 15.894C30.8071 15.894 31.5091 15.636 32.0251 15.12C32.5531 14.592 32.8171 13.788 32.8171 12.708V10.728C32.8171 9.648 32.5531 8.85 32.0251 8.334C31.5091 7.806 30.8071 7.542 29.9191 7.542H27.7231V15.894H29.9191ZM37.7573 18V5.436H46.0373V7.542H40.1333V10.584H45.3533V12.69H40.1333V15.894H46.0373V18H37.7573ZM50.9262 18H48.5502V5.436H54.2202C54.7962 5.436 55.3122 5.526 55.7682 5.706C56.2242 5.886 56.6082 6.15 56.9202 6.498C57.2442 6.834 57.4902 7.242 57.6582 7.722C57.8382 8.202 57.9282 8.736 57.9282 9.324C57.9282 10.188 57.7302 10.932 57.3342 11.556C56.9502 12.18 56.3682 12.624 55.5882 12.888L58.1622 18H55.5162L53.1762 13.158H50.9262V18ZM53.9862 11.16C54.4422 11.16 54.8022 11.04 55.0662 10.8C55.3302 10.548 55.4622 10.194 55.4622 9.738V8.91C55.4622 8.454 55.3302 8.106 55.0662 7.866C54.8022 7.626 54.4422 7.506 53.9862 7.506H50.9262V11.16H53.9862ZM64.4813 18.216C63.3773 18.216 62.4413 18.03 61.6733 17.658C60.9053 17.274 60.2513 16.782 59.7113 16.182L61.5113 14.364C62.3633 15.324 63.4133 15.804 64.6613 15.804C65.3333 15.804 65.8313 15.666 66.1553 15.39C66.4793 15.114 66.6413 14.748 66.6413 14.292C66.6413 13.944 66.5453 13.656 66.3533 13.428C66.1613 13.188 65.7713 13.026 65.1833 12.942L63.9413 12.78C62.6093 12.612 61.6313 12.21 61.0073 11.574C60.3953 10.938 60.0893 10.092 60.0893 9.036C60.0893 8.472 60.1973 7.956 60.4133 7.488C60.6293 7.02 60.9353 6.618 61.3313 6.282C61.7393 5.946 62.2313 5.688 62.8073 5.508C63.3953 5.316 64.0613 5.22 64.8053 5.22C65.7533 5.22 66.5873 5.37 67.3073 5.67C68.0273 5.97 68.6453 6.408 69.1613 6.984L67.3433 8.82C67.0433 8.472 66.6773 8.19 66.2453 7.974C65.8253 7.746 65.2913 7.632 64.6433 7.632C64.0313 7.632 63.5753 7.74 63.2753 7.956C62.9753 8.172 62.8253 8.472 62.8253 8.856C62.8253 9.288 62.9393 9.6 63.1673 9.792C63.4073 9.984 63.7913 10.122 64.3193 10.206L65.5613 10.404C66.8573 10.608 67.8173 11.01 68.4413 11.61C69.0653 12.198 69.3773 13.038 69.3773 14.13C69.3773 14.73 69.2693 15.282 69.0533 15.786C68.8373 16.29 68.5193 16.722 68.0993 17.082C67.6913 17.442 67.1813 17.724 66.5693 17.928C65.9573 18.12 65.2613 18.216 64.4813 18.216ZM76.6678 7.542V18H74.2918V7.542H70.7278V5.436H80.2318V7.542H76.6678ZM97.9272 5.436H102.499C103.315 5.436 104.053 5.568 104.713 5.832C105.385 6.096 105.955 6.492 106.423 7.02C106.903 7.536 107.269 8.19 107.521 8.982C107.785 9.762 107.917 10.674 107.917 11.718C107.917 12.762 107.785 13.68 107.521 14.472C107.269 15.252 106.903 15.906 106.423 16.434C105.955 16.95 105.385 17.34 104.713 17.604C104.053 17.868 103.315 18 102.499 18H97.9272V5.436ZM102.499 15.894C103.387 15.894 104.089 15.636 104.605 15.12C105.133 14.592 105.397 13.788 105.397 12.708V10.728C105.397 9.648 105.133 8.85 104.605 8.334C104.089 7.806 103.387 7.542 102.499 7.542H100.303V15.894H102.499ZM112.605 18V13.068L108.303 5.436H110.967L113.865 10.746H113.901L116.727 5.436H119.319L114.999 13.05V18H112.605Z" fill="#1C1C1C"/>
<path d="M95.7949 7.5C95.9772 7.5 96.1322 7.5638 96.2598 7.69141C96.3874 7.81901 96.4512 7.97396 96.4512 8.15625V9.6875C96.4512 10.7083 95.8861 11.6289 94.7559 12.4492C93.8809 13.069 92.8783 13.4427 91.748 13.5703C91.1829 14.5182 90.5632 15.1927 89.8887 15.5938V17.5625H91.2012C91.6934 17.5625 92.1035 17.6992 92.4316 17.9727C92.778 18.2461 92.9512 18.6198 92.9512 19.0938V19.4219C92.9512 19.6406 92.8418 19.75 92.623 19.75H84.5293C84.3105 19.75 84.2012 19.6406 84.2012 19.4219V19.0938C84.2012 18.6198 84.3652 18.2461 84.6934 17.9727C85.0397 17.6992 85.459 17.5625 85.9512 17.5625H87.2637V15.5938C87.1908 15.5573 87.0905 15.4935 86.9629 15.4023C86.8353 15.3112 86.6074 15.0924 86.2793 14.7461C85.9512 14.3997 85.6595 14.0078 85.4043 13.5703C84.2741 13.4427 83.2715 13.069 82.3965 12.4492C81.2663 11.6289 80.7012 10.7083 80.7012 9.6875V8.15625C80.7012 7.97396 80.765 7.81901 80.8926 7.69141C81.0202 7.5638 81.1751 7.5 81.3574 7.5H84.2012V6.40625C84.2012 6.22396 84.265 6.06901 84.3926 5.94141C84.5202 5.8138 84.6751 5.75 84.8574 5.75H92.2949C92.4772 5.75 92.6322 5.8138 92.7598 5.94141C92.8874 6.06901 92.9512 6.22396 92.9512 6.40625V7.5H95.7949ZM83.4082 11.0273C83.7546 11.2643 84.1374 11.4557 84.5566 11.6016C84.3561 10.8542 84.2376 10.0703 84.2012 9.25H82.4512V9.6875C82.4512 10.1068 82.7702 10.5534 83.4082 11.0273ZM94.7012 9.6875V9.25H92.9512C92.9147 10.0703 92.7962 10.8542 92.5957 11.6016C93.015 11.4557 93.3978 11.2643 93.7441 11.0273C94.3822 10.5534 94.7012 10.1068 94.7012 9.6875Z" fill="#DD2052"/>
</svg>
